<svg width="104" height="18" viewBox="0 0 104 18" fill="none" xmlns="http://www.w3.org/2000/svg">
<path fill-rule="evenodd" clip-rule="evenodd" d="M10.972 0.995117H1.13477V16.9278H5.81802V12.0734H10.972V8.02987H7.86023L6.85643 9.27647L6.85643 8.02987H5.81802V5.05072H10.972V0.995117ZM13.1489 0.995265H17.8256V12.8558H23.2617V16.9057H13.1489V0.995265ZM60.6954 16.9057H55.1628L53.3477 9.19142L51.5227 16.9057H45.9661L42.1331 0.995265H47.5089L49.0536 10.5961L51.6915 0.995265H54.9941L57.6319 10.5961L59.1766 0.995265H64.5524L60.6954 16.9057ZM71.2183 0.995265H66.5416V16.9057H76.6544V12.8558H71.2183V0.995265ZM78.8775 0.995265H83.5542V12.8558H88.9903V16.9057H78.8775V0.995265ZM87.4554 0.995265L93.0361 11.1804V16.9057H97.7007V11.1804L103.257 0.995265H97.6043L95.3624 5.87688L93.1325 0.995265H87.4554Z" fill="black"/>
<path fill-rule="evenodd" clip-rule="evenodd" d="M25.0332 8.97953C25.0332 7.82241 25.2421 6.74564 25.66 5.74922C26.0859 4.74478 26.6765 3.8689 27.4318 3.12159C28.1872 2.37428 29.0711 1.7917 30.0836 1.37385C31.1041 0.955996 32.205 0.74707 33.3862 0.74707C34.5915 0.74707 35.7004 0.955996 36.7129 1.37385C37.7334 1.7917 38.6174 2.37428 39.3647 3.12159C40.12 3.8689 40.7026 4.74478 41.1124 5.74922C41.5303 6.74564 41.7392 7.82241 41.7392 8.97953C41.7392 10.1447 41.5383 11.2295 41.1365 12.2339C40.7347 13.2304 40.1602 14.1062 39.4129 14.8616C38.6736 15.6089 37.7937 16.1915 36.7732 16.6093C35.7527 17.0272 34.6237 17.2361 33.3862 17.2361C32.1166 17.2361 30.9675 17.0272 29.9389 16.6093C28.9184 16.1915 28.0425 15.6089 27.3113 14.8616C26.5801 14.1062 26.0176 13.2304 25.6238 12.2339C25.2301 11.2295 25.0332 10.1447 25.0332 8.97953ZM36.4848 8.96204C36.4848 10.6119 35.1473 11.9494 33.4974 11.9494C33.4444 11.9494 33.3916 11.948 33.3393 11.9453L33.3442 11.9493H30.9374L31.5608 11.2368C30.9178 10.6888 30.51 9.87306 30.51 8.96204C30.51 7.31216 31.8475 5.97466 33.4974 5.97466C35.1473 5.97466 36.4848 7.31216 36.4848 8.96204Z" fill="black"/>
<mask id="path-3-outside-1_40_3898" maskUnits="userSpaceOnUse" x="-0.615234" y="-0.751953" width="104" height="18" fill="black">
<rect fill="white" x="-0.615234" y="-0.751953" width="104" height="18"/>
<path fill-rule="evenodd" clip-rule="evenodd" d="M12.3992 0.248047H17.0759V12.1086H22.512V16.1585H12.3992V0.248047ZM59.9457 16.1585H54.4132L52.598 8.4442L50.773 16.1585H45.2164L41.3835 0.248047H46.7593L48.304 9.84883L50.9418 0.248047H54.2444L56.8823 9.84884L58.4269 0.248047H63.8027L59.9457 16.1585ZM70.4686 0.248047H65.7919V16.1585H75.9047V12.1086H70.4686V0.248047ZM78.1278 0.248047H82.8045V12.1086H88.2406V16.1585H78.1278V0.248047ZM86.7057 0.248047L92.2864 10.4332V16.1585H96.951V10.4332L102.508 0.248047H96.8546L94.6127 5.12967L92.3828 0.248047H86.7057ZM10.222 0.248085H0.384766V16.1808H5.06802V11.3264H10.222V7.28284H7.11023L6.10643 8.52944L6.10643 7.28284H5.06802V4.30369H10.222V0.248085Z"/>
</mask>
<path fill-rule="evenodd" clip-rule="evenodd" d="M12.3992 0.248047H17.0759V12.1086H22.512V16.1585H12.3992V0.248047ZM59.9457 16.1585H54.4132L52.598 8.4442L50.773 16.1585H45.2164L41.3835 0.248047H46.7593L48.304 9.84883L50.9418 0.248047H54.2444L56.8823 9.84884L58.4269 0.248047H63.8027L59.9457 16.1585ZM70.4686 0.248047H65.7919V16.1585H75.9047V12.1086H70.4686V0.248047ZM78.1278 0.248047H82.8045V12.1086H88.2406V16.1585H78.1278V0.248047ZM86.7057 0.248047L92.2864 10.4332V16.1585H96.951V10.4332L102.508 0.248047H96.8546L94.6127 5.12967L92.3828 0.248047H86.7057ZM10.222 0.248085H0.384766V16.1808H5.06802V11.3264H10.222V7.28284H7.11023L6.10643 8.52944L6.10643 7.28284H5.06802V4.30369H10.222V0.248085Z" fill="white"/>
<path d="M17.0759 0.248047H17.3249V-0.000901863H17.0759V0.248047ZM12.3992 0.248047V-0.000901863H12.1503V0.248047H12.3992ZM17.0759 12.1086H16.827V12.3575H17.0759V12.1086ZM22.512 12.1086H22.761V11.8596H22.512V12.1086ZM22.512 16.1585V16.4075H22.761V16.1585H22.512ZM12.3992 16.1585H12.1503V16.4075H12.3992V16.1585ZM54.4132 16.1585L54.1708 16.2155L54.216 16.4075H54.4132V16.1585ZM59.9457 16.1585V16.4075H60.1415L60.1876 16.2172L59.9457 16.1585ZM52.598 8.4442L52.8404 8.38719L52.3558 8.38689L52.598 8.4442ZM50.773 16.1585V16.4075H50.97L51.0153 16.2158L50.773 16.1585ZM45.2164 16.1585L44.9744 16.2168L45.0203 16.4075H45.2164V16.1585ZM41.3835 0.248047V-0.000901863H41.0674L41.1414 0.306353L41.3835 0.248047ZM46.7593 0.248047L47.0051 0.208502L46.9714 -0.000901863H46.7593V0.248047ZM48.304 9.84883L48.0582 9.88837L48.544 9.91478L48.304 9.84883ZM50.9418 0.248047V-0.000901863H50.752L50.7017 0.182092L50.9418 0.248047ZM54.2444 0.248047L54.4845 0.182092L54.4342 -0.000901863L54.2444 -0.000901863V0.248047ZM56.8823 9.84884L56.6422 9.9148L57.128 9.88839L56.8823 9.84884ZM58.4269 0.248047V-0.000901863H58.2148L58.1812 0.208502L58.4269 0.248047ZM63.8027 0.248047L64.0447 0.306699L64.1193 -0.000901863H63.8027V0.248047ZM65.7919 0.248047V-0.000901863H65.543V0.248047H65.7919ZM70.4686 0.248047H70.7176V-0.000901863H70.4686V0.248047ZM65.7919 16.1585H65.543V16.4075H65.7919V16.1585ZM75.9047 16.1585V16.4075H76.1537V16.1585H75.9047ZM75.9047 12.1086H76.1537V11.8596H75.9047V12.1086ZM70.4686 12.1086H70.2197V12.3575H70.4686V12.1086ZM82.8045 0.248047H83.0535V-0.000901863H82.8045V0.248047ZM78.1278 0.248047V-0.000901863H77.8789V0.248047H78.1278ZM82.8045 12.1086H82.5556V12.3575H82.8045V12.1086ZM88.2406 12.1086H88.4895V11.8596H88.2406V12.1086ZM88.2406 16.1585V16.4075H88.4895V16.1585H88.2406ZM78.1278 16.1585H77.8789V16.4075H78.1278V16.1585ZM92.2864 10.4332H92.5353V10.3694L92.5047 10.3135L92.2864 10.4332ZM86.7057 0.248047V-0.000901863H86.2854L86.4873 0.367673L86.7057 0.248047ZM92.2864 16.1585H92.0374V16.4075H92.2864V16.1585ZM96.951 16.1585V16.4075H97.2V16.1585H96.951ZM96.951 10.4332L96.7325 10.3139L96.7021 10.3697V10.4332H96.951ZM102.508 0.248047L102.726 0.367275L102.927 -0.000901863L102.508 -0.000901863V0.248047ZM96.8546 0.248047V-0.000901863H96.695L96.6284 0.144148L96.8546 0.248047ZM94.6127 5.12967L94.3862 5.2331L94.6121 5.72749L94.8389 5.23356L94.6127 5.12967ZM92.3828 0.248047L92.6093 0.14461L92.5428 -0.000901863L92.3828 -0.000901863V0.248047ZM0.384766 0.248085V-0.000863345H0.135817V0.248085H0.384766ZM10.222 0.248085H10.471V-0.000863345H10.222V0.248085ZM0.384766 16.1808H0.135817V16.4298H0.384766V16.1808ZM5.06802 16.1808V16.4298H5.31697V16.1808H5.06802ZM5.06802 11.3264V11.0774H4.81907V11.3264H5.06802ZM10.222 11.3264V11.5753H10.471V11.3264H10.222ZM10.222 7.28284H10.471V7.03389H10.222V7.28284ZM7.11023 7.28284V7.03389H6.99107L6.91633 7.1267L7.11023 7.28284ZM6.10643 8.52944L5.85748 8.52944L5.85748 9.23555L6.30033 8.68558L6.10643 8.52944ZM6.10643 7.28284L6.35538 7.28284L6.35538 7.03389H6.10643V7.28284ZM5.06802 7.28284H4.81907V7.53178H5.06802V7.28284ZM5.06802 4.30369V4.05474H4.81907V4.30369H5.06802ZM10.222 4.30369V4.55264H10.471V4.30369H10.222ZM17.0759 -0.000901863H12.3992V0.496996H17.0759V-0.000901863ZM17.3249 12.1086V0.248047H16.827V12.1086H17.3249ZM22.512 11.8596H17.0759V12.3575H22.512V11.8596ZM22.761 16.1585V12.1086H22.2631V16.1585H22.761ZM12.3992 16.4075H22.512V15.9096H12.3992V16.4075ZM12.1503 0.248047V16.1585H12.6482V0.248047H12.1503ZM54.4132 16.4075H59.9457V15.9096H54.4132V16.4075ZM52.3557 8.50122L54.1708 16.2155L54.6555 16.1015L52.8404 8.38719L52.3557 8.50122ZM51.0153 16.2158L52.8403 8.50152L52.3558 8.38689L50.5308 16.1012L51.0153 16.2158ZM45.2164 16.4075H50.773V15.9096H45.2164V16.4075ZM41.1414 0.306353L44.9744 16.2168L45.4585 16.1002L41.6255 0.189741L41.1414 0.306353ZM46.7593 -0.000901863H41.3835V0.496996H46.7593V-0.000901863ZM48.5497 9.80928L47.0051 0.208502L46.5135 0.287592L48.0582 9.88837L48.5497 9.80928ZM50.7017 0.182092L48.0639 9.78287L48.544 9.91478L51.1818 0.314002L50.7017 0.182092ZM54.2444 -0.000901863H50.9418V0.496996H54.2444V-0.000901863ZM57.1223 9.78289L54.4845 0.182092L54.0044 0.314002L56.6422 9.9148L57.1223 9.78289ZM58.1812 0.208502L56.6365 9.8093L57.128 9.88839L58.6727 0.287592L58.1812 0.208502ZM63.8027 -0.000901863H58.4269V0.496996H63.8027V-0.000901863ZM60.1876 16.2172L64.0447 0.306699L63.5608 0.189395L59.7037 16.0999L60.1876 16.2172ZM65.7919 0.496996H70.4686V-0.000901863H65.7919V0.496996ZM66.0409 16.1585V0.248047H65.543V16.1585H66.0409ZM75.9047 15.9096H65.7919V16.4075H75.9047V15.9096ZM75.6558 12.1086V16.1585H76.1537V12.1086H75.6558ZM70.4686 12.3575H75.9047V11.8596H70.4686V12.3575ZM70.2197 0.248047V12.1086H70.7176V0.248047H70.2197ZM82.8045 -0.000901863H78.1278V0.496996H82.8045V-0.000901863ZM83.0535 12.1086V0.248047H82.5556V12.1086H83.0535ZM88.2406 11.8596H82.8045V12.3575H88.2406V11.8596ZM88.4895 16.1585V12.1086H87.9917V16.1585H88.4895ZM78.1278 16.4075H88.2406V15.9096H78.1278V16.4075ZM77.8789 0.248047V16.1585H78.3768V0.248047H77.8789ZM92.5047 10.3135L86.924 0.128421L86.4873 0.367673L92.0681 10.5528L92.5047 10.3135ZM92.5353 16.1585V10.4332H92.0374V16.1585H92.5353ZM96.951 15.9096H92.2864V16.4075H96.951V15.9096ZM96.7021 10.4332V16.1585H97.2V10.4332H96.7021ZM102.289 0.128819L96.7325 10.3139L97.1696 10.5524L102.726 0.367275L102.289 0.128819ZM96.8546 0.496996H102.508V-0.000901863H96.8546V0.496996ZM94.8389 5.23356L97.0808 0.351946L96.6284 0.144148L94.3865 5.02577L94.8389 5.23356ZM92.1564 0.351483L94.3862 5.2331L94.8391 5.02623L92.6093 0.14461L92.1564 0.351483ZM86.7057 0.496996H92.3828V-0.000901863H86.7057V0.496996ZM0.384766 0.497034H10.222V-0.000863345H0.384766V0.497034ZM0.633714 16.1808V0.248085H0.135817V16.1808H0.633714ZM5.06802 15.9319H0.384766V16.4298H5.06802V15.9319ZM4.81907 11.3264V16.1808H5.31697V11.3264H4.81907ZM10.222 11.0774H5.06802V11.5753H10.222V11.0774ZM9.97306 7.28284V11.3264H10.471V7.28284H9.97306ZM7.11023 7.53178H10.222V7.03389H7.11023V7.53178ZM6.30033 8.68558L7.30413 7.43897L6.91633 7.1267L5.91253 8.37331L6.30033 8.68558ZM5.85748 7.28284L5.85748 8.52944L6.35538 8.52944L6.35538 7.28284L5.85748 7.28284ZM5.06802 7.53178H6.10643V7.03389H5.06802V7.53178ZM4.81907 4.30369V7.28284H5.31697V4.30369H4.81907ZM10.222 4.05474H5.06802V4.55264H10.222V4.05474ZM9.97306 0.248085V4.30369H10.471V0.248085H9.97306Z" fill="black" mask="url(#path-3-outside-1_40_3898)"/>
<mask id="path-5-inside-2_40_3898" fill="white">
<path fill-rule="evenodd" clip-rule="evenodd" d="M24.2852 8.23246C24.2852 7.07534 24.4941 5.99857 24.9119 5.00215C25.3378 3.99771 25.9284 3.12183 26.6838 2.37452C27.4391 1.62721 28.323 1.04463 29.3355 0.626776C30.356 0.208925 31.4569 0 32.6381 0C33.8435 0 34.9524 0.208925 35.9649 0.626776C36.9854 1.04463 37.8693 1.62721 38.6166 2.37452C39.372 3.12183 39.9545 3.99771 40.3644 5.00215C40.7822 5.99857 40.9911 7.07534 40.9911 8.23246C40.9911 9.39762 40.7902 10.4824 40.3885 11.4869C39.9867 12.4833 39.4121 13.3592 38.6648 14.1145C37.9256 14.8618 37.0457 15.4444 36.0251 15.8623C35.0046 16.2801 33.8756 16.489 32.6381 16.489C31.3685 16.489 30.2194 16.2801 29.1909 15.8623C28.1704 15.4444 27.2945 14.8618 26.5632 14.1145C25.832 13.3592 25.2695 12.4833 24.8758 11.4869C24.482 10.4824 24.2852 9.39762 24.2852 8.23246ZM35.7359 8.21497C35.7359 9.86486 34.3984 11.2024 32.7485 11.2024C32.6952 11.2024 32.6422 11.201 32.5895 11.1982L32.5945 11.2022H30.1877L30.8115 10.4893C30.1687 9.94137 29.7611 9.12577 29.7611 8.21497C29.7611 6.56509 31.0986 5.22759 32.7485 5.22759C34.3984 5.22759 35.7359 6.56509 35.7359 8.21497Z"/>
</mask>
<path fill-rule="evenodd" clip-rule="evenodd" d="M24.2852 8.23246C24.2852 7.07534 24.4941 5.99857 24.9119 5.00215C25.3378 3.99771 25.9284 3.12183 26.6838 2.37452C27.4391 1.62721 28.323 1.04463 29.3355 0.626776C30.356 0.208925 31.4569 0 32.6381 0C33.8435 0 34.9524 0.208925 35.9649 0.626776C36.9854 1.04463 37.8693 1.62721 38.6166 2.37452C39.372 3.12183 39.9545 3.99771 40.3644 5.00215C40.7822 5.99857 40.9911 7.07534 40.9911 8.23246C40.9911 9.39762 40.7902 10.4824 40.3885 11.4869C39.9867 12.4833 39.4121 13.3592 38.6648 14.1145C37.9256 14.8618 37.0457 15.4444 36.0251 15.8623C35.0046 16.2801 33.8756 16.489 32.6381 16.489C31.3685 16.489 30.2194 16.2801 29.1909 15.8623C28.1704 15.4444 27.2945 14.8618 26.5632 14.1145C25.832 13.3592 25.2695 12.4833 24.8758 11.4869C24.482 10.4824 24.2852 9.39762 24.2852 8.23246ZM35.7359 8.21497C35.7359 9.86486 34.3984 11.2024 32.7485 11.2024C32.6952 11.2024 32.6422 11.201 32.5895 11.1982L32.5945 11.2022H30.1877L30.8115 10.4893C30.1687 9.94137 29.7611 9.12577 29.7611 8.21497C29.7611 6.56509 31.0986 5.22759 32.7485 5.22759C34.3984 5.22759 35.7359 6.56509 35.7359 8.21497Z" fill="white"/>
<path d="M24.9119 5.00215L24.6827 4.90497L24.6824 4.90588L24.9119 5.00215ZM26.6838 2.37452L26.5087 2.19754L26.5087 2.19754L26.6838 2.37452ZM29.3355 0.626776L29.2412 0.396391L29.2406 0.396655L29.3355 0.626776ZM35.9649 0.626776L35.8699 0.856899L35.8706 0.857161L35.9649 0.626776ZM38.6166 2.37452L38.4406 2.55055L38.4415 2.55149L38.6166 2.37452ZM40.3644 5.00215L40.1339 5.0962L40.1348 5.09843L40.3644 5.00215ZM40.3885 11.4869L40.6194 11.58L40.6196 11.5793L40.3885 11.4869ZM38.6648 14.1145L38.4879 13.9394L38.4879 13.9394L38.6648 14.1145ZM36.0251 15.8623L35.9308 15.6319L35.9308 15.6319L36.0251 15.8623ZM29.1909 15.8623L29.0965 16.0926L29.0972 16.0929L29.1909 15.8623ZM26.5632 14.1145L26.3844 14.2877L26.3853 14.2886L26.5632 14.1145ZM24.8758 11.4869L24.644 11.5777L24.6442 11.5784L24.8758 11.4869ZM32.5895 11.1982L32.6025 10.9496L31.8348 10.9093L32.4332 11.392L32.5895 11.1982ZM32.5945 11.2022V11.4512H33.2997L32.7508 11.0084L32.5945 11.2022ZM30.1877 11.2022L30.0003 11.0383L29.6391 11.4512H30.1877V11.2022ZM30.8115 10.4893L30.9988 10.6532L31.1649 10.4635L30.973 10.2999L30.8115 10.4893ZM24.6824 4.90588C24.2508 5.93489 24.0362 7.04465 24.0362 8.23246H24.5341C24.5341 7.10602 24.7373 6.06224 25.1415 5.09843L24.6824 4.90588ZM26.5087 2.19754C25.7297 2.96829 25.1209 3.87147 24.6827 4.90497L25.1411 5.09933C25.5547 4.12394 26.1272 3.27536 26.8589 2.55149L26.5087 2.19754ZM29.2406 0.396655C28.1991 0.826459 27.2877 1.42678 26.5087 2.19754L26.8589 2.55149C27.5905 1.82764 28.447 1.2628 29.4305 0.856898L29.2406 0.396655ZM32.6381 -0.248949C31.4269 -0.248949 30.2937 -0.0345696 29.2412 0.396392L29.4299 0.857161C30.4184 0.452421 31.4869 0.248949 32.6381 0.248949V-0.248949ZM36.0599 0.396655C35.0144 -0.0348212 33.8728 -0.248949 32.6381 -0.248949V0.248949C33.8142 0.248949 34.8904 0.452672 35.8699 0.856898L36.0599 0.396655ZM38.7927 2.19848C38.021 1.4268 37.109 0.826206 36.0592 0.396392L35.8706 0.857161C36.8619 1.26305 37.7177 1.82761 38.4406 2.55055L38.7927 2.19848ZM40.5949 4.90811C40.1726 3.87323 39.5714 2.96898 38.7917 2.19754L38.4415 2.55149C39.1725 3.27467 39.7365 4.12218 40.1339 5.0962L40.5949 4.90811ZM41.2401 8.23246C41.2401 7.04465 41.0255 5.93489 40.5939 4.90588L40.1348 5.09843C40.539 6.06224 40.7422 7.10602 40.7422 8.23246H41.2401ZM40.6196 11.5793C41.034 10.5433 41.2401 9.42683 41.2401 8.23246H40.7422C40.7422 9.36841 40.5465 10.4216 40.1573 11.3944L40.6196 11.5793ZM38.8418 14.2896C39.6126 13.5105 40.2054 12.6067 40.6194 11.58L40.1576 11.3938C39.768 12.3599 39.2117 13.2078 38.4879 13.9394L38.8418 14.2896ZM36.1195 16.0926C37.1694 15.6627 38.0778 15.0619 38.8418 14.2896L38.4879 13.9394C37.7733 14.6618 36.9219 15.2261 35.9308 15.6319L36.1195 16.0926ZM32.6381 16.738C33.904 16.738 35.0656 16.5242 36.1195 16.0926L35.9308 15.6319C34.9437 16.036 33.8472 16.2401 32.6381 16.2401V16.738ZM29.0972 16.0929C30.1595 16.5244 31.341 16.738 32.6381 16.738V16.2401C31.3961 16.2401 30.2794 16.0358 29.2846 15.6316L29.0972 16.0929ZM26.3853 14.2886C27.1416 15.0615 28.0464 15.6626 29.0965 16.0926L29.2852 15.6319C28.2944 15.2262 27.4474 14.6621 26.7412 13.9404L26.3853 14.2886ZM24.6442 11.5784C25.0498 12.6046 25.63 13.5084 26.3844 14.2877L26.7421 13.9414C26.0341 13.21 25.4893 12.362 25.1073 11.3954L24.6442 11.5784ZM24.0362 8.23246C24.0362 9.42621 24.238 10.5421 24.644 11.5777L25.1075 11.396C24.726 10.4228 24.5341 9.36903 24.5341 8.23246H24.0362ZM32.7485 11.4513C34.5359 11.4513 35.9849 10.0024 35.9849 8.21497H35.487C35.487 9.72737 34.2609 10.9534 32.7485 10.9534V11.4513ZM32.5765 11.4468C32.6335 11.4498 32.6908 11.4513 32.7485 11.4513V10.9534C32.6995 10.9534 32.6509 10.9521 32.6025 10.9496L32.5765 11.4468ZM32.7508 11.0084L32.7458 11.0044L32.4332 11.392L32.4382 11.396L32.7508 11.0084ZM30.1877 11.4512H32.5945V10.9533H30.1877V11.4512ZM30.6241 10.3254L30.0003 11.0383L30.375 11.3661L30.9988 10.6532L30.6241 10.3254ZM29.5122 8.21497C29.5122 9.20173 29.9541 10.0855 30.65 10.6788L30.973 10.2999C30.3834 9.7972 30.0101 9.04981 30.0101 8.21497H29.5122ZM32.7485 4.97864C30.9611 4.97864 29.5122 6.4276 29.5122 8.21497H30.0101C30.0101 6.70258 31.2361 5.47654 32.7485 5.47654V4.97864ZM35.9849 8.21497C35.9849 6.4276 34.5359 4.97864 32.7485 4.97864V5.47654C34.2609 5.47654 35.487 6.70258 35.487 8.21497H35.9849Z" fill="black" mask="url(#path-5-inside-2_40_3898)"/>
</svg>
